# xmcd CD database file
#
# Track frame offsets:
#	150
#	16358
#	30440
#	44407
#	69803
#	82650
#	92435
#	99826
#	115856
#	126812
#	144759
#	162498
#	179770
#	198035
#
# Disc length: 3041 seconds
#
# Revision: 0
# Processed by: cddbd v1.5.2PL0 Copyright (c) Steve Scherf et al.
# Submitted via: CDex 1.51
#
DISCID=a00bdf0e
DTITLE=Christopher Monti - Locust Grove
DYEAR=2005
DGENRE=Blues
TTITLE0=Long in the Tooth
TTITLE1=Annalee
TTITLE2=Top of the Hill
TTITLE3=King Solomon and Zen Master Nam Cheon
TTITLE4=Chris and Adam's Song
TTITLE5=Country Boy in the City
TTITLE6=Julie Song No. 1: Three Birds
TTITLE7=Even When You're Not Here
TTITLE8=The Man Who Lost His Fear of God
TTITLE9=Leaving in the Morning
TTITLE10=Lowland
TTITLE11=Caroline andMatt's Wedding Song
TTITLE12=Cadence Emma
TTITLE13=Me and Curby
EXTD=YEAR: 2005
EXTT0=
EXTT1=
EXTT2=
EXTT3=
EXTT4=
EXTT5=
EXTT6=
EXTT7=
EXTT8=
EXTT9=
EXTT10=
EXTT11=
EXTT12=
EXTT13=
PLAYORDER=
